<svg width="125" height="154" viewBox="0 0 125 154" fill="none" xmlns="http://www.w3.org/2000/svg">
<path d="M115.335 31.8959C121.696 33.0138 125.942 39.0572 124.82 45.3944L107.305 144.369C106.183 150.707 100.117 154.939 93.7566 153.821L17.8225 140.48C14.4385 139.886 12.1791 136.67 12.7758 133.299C13.3002 130.336 15.8837 128.175 18.9032 128.175H83.3278C87.6008 128.175 91.485 126.514 94.3648 123.806C94.5901 123.594 94.81 123.374 95.0229 123.15C97.7415 120.281 99.4086 116.41 99.4086 112.153V29.0966L115.335 31.8959ZM83.3278 0C89.7867 0 95.0229 5.21736 95.0229 11.6523V112.153C95.0229 118.388 90.1094 123.477 83.9302 123.79L83.3278 123.806H11.6951L11.0927 123.79C5.11305 123.487 0.319075 118.711 0.0157039 112.754L0 112.153V11.6523C0 5.21736 5.23618 0 11.6951 0H83.3278ZM17.5427 100.501C15.9279 100.501 14.6189 101.805 14.6189 103.414C14.6189 105.023 15.9351 106.327 17.5498 106.327H48.2424C49.8572 106.327 51.1662 105.023 51.1662 103.414C51.1662 101.805 49.8572 100.501 48.2424 100.501H17.5427ZM17.5427 80.1095C15.9279 80.1095 14.6189 81.4137 14.6189 83.0226C14.6189 84.6314 15.9279 85.9356 17.5427 85.9356H77.4802C79.095 85.9356 80.404 84.6314 80.404 83.0226C80.404 81.4137 79.095 80.1095 77.4802 80.1095H17.5427ZM17.5427 59.718C15.9279 59.718 14.6189 61.0222 14.6189 62.6311C14.6189 64.2399 15.9279 65.5441 17.5427 65.5441H77.4802C79.095 65.5441 80.404 64.2399 80.404 62.6311C80.404 61.0222 79.095 59.718 77.4802 59.718H17.5427ZM30.3257 34.129C26.3027 32.5261 20.9846 32.8745 17.4984 35.1731C15.642 36.412 14.6189 38.0862 14.6189 39.8784C14.6189 41.6706 15.6422 43.3305 17.4842 44.5538C19.531 45.9236 22.2207 46.6077 24.9107 46.6077C26.0148 46.6077 27.119 46.4925 28.1785 46.2621C29.7004 45.9307 31.1305 45.3603 32.3372 44.5538C34.1788 43.3163 35.2024 41.6549 35.2024 39.8499C35.1878 38.0577 34.1788 36.3978 32.3372 35.1731C31.7197 34.7634 31.0431 34.4149 30.3257 34.129ZM24.9092 17.4784C21.0789 17.4784 17.9653 20.5807 17.9653 24.397C17.9653 28.0888 20.8232 31.0862 24.5752 31.2942C24.6804 31.3 24.7867 31.2925 24.8921 31.2913C24.9238 31.291 24.9547 31.2908 24.9835 31.2928C25.0318 31.2961 25.0807 31.3013 25.1291 31.3013H25.1577C28.9002 31.1704 31.8386 28.1407 31.8532 24.397C31.8532 20.5807 28.7396 17.4784 24.9092 17.4784Z" fill="white"/>
</svg>
