<svg width="169" height="48" viewBox="0 0 169 48" fill="none" xmlns="http://www.w3.org/2000/svg">
<path d="M35.9846 9.94157C37.969 10.29 39.2939 12.1737 38.944 14.1489L33.4791 44.9982C33.1291 46.9735 31.2366 48.2925 29.2521 47.9442L5.56062 43.7861C4.50482 43.6007 3.79988 42.5986 3.98606 41.5476C4.14967 40.6242 4.95573 39.9508 5.8978 39.9507H25.9983C27.3315 39.9507 28.5433 39.4328 29.4418 38.5887C29.5121 38.5227 29.5807 38.4544 29.6471 38.3844C30.4954 37.4902 31.0155 36.2837 31.0155 34.9569V9.06907L35.9846 9.94157ZM25.9983 0C28.0135 0 29.6471 1.62619 29.6471 3.63188V34.9569C29.6471 36.9001 28.1141 38.4863 26.1862 38.5839L25.9983 38.5887H3.64888L3.46091 38.5839C1.59527 38.4894 0.0995513 37.0007 0.00489962 35.144L0 34.9569V3.63188C0 1.62619 1.63369 0 3.64888 0H25.9983ZM5.47332 31.325C4.96951 31.325 4.5611 31.7315 4.5611 32.233C4.5611 32.7344 4.97174 33.1409 5.47555 33.1409H15.0516C15.5554 33.1409 15.9638 32.7344 15.9638 32.233C15.9638 31.7315 15.5554 31.325 15.0516 31.325H5.47332ZM5.47332 24.9692C4.96951 24.9692 4.5611 25.3757 4.5611 25.8772C4.5611 26.3786 4.96951 26.7851 5.47332 26.7851H24.1738C24.6776 26.7851 25.086 26.3786 25.086 25.8772C25.086 25.3757 24.6776 24.9692 24.1738 24.9692H5.47332ZM5.47332 18.6134C4.96951 18.6134 4.5611 19.0199 4.5611 19.5214C4.5611 20.0228 4.96951 20.4293 5.47332 20.4293H24.1738C24.6776 20.4293 25.086 20.0228 25.086 19.5214C25.086 19.0199 24.6776 18.6134 24.1738 18.6134H5.47332ZM9.46161 10.6376C8.20643 10.138 6.5472 10.2466 5.45951 10.963C4.88029 11.3492 4.5611 11.871 4.5611 12.4296C4.5611 12.9882 4.88035 13.5056 5.45506 13.8869C6.09368 14.3138 6.93285 14.5271 7.77213 14.5271C8.11663 14.5271 8.46112 14.4912 8.7917 14.4194C9.26651 14.3161 9.71271 14.1383 10.0892 13.8869C10.6638 13.5012 10.9832 12.9834 10.9832 12.4208C10.9786 11.8621 10.6638 11.3448 10.0892 10.963C9.89656 10.8354 9.68543 10.7267 9.46161 10.6376ZM7.77169 5.44782C6.57662 5.44782 5.60516 6.41476 5.60516 7.60425C5.60516 8.75494 6.49684 9.6892 7.66746 9.75403C7.70029 9.75584 7.73346 9.7535 7.76634 9.75315C7.77623 9.75304 7.78585 9.75297 7.79485 9.75359C7.80991 9.75463 7.82518 9.75625 7.84028 9.75625H7.84919C9.01686 9.71546 9.93364 8.77114 9.93821 7.60425C9.93821 6.41476 8.96675 5.44782 7.77169 5.44782Z" fill="white"/>
<path d="M59.0629 33.396C56.4949 33.396 54.3589 32.544 52.6549 30.84C50.9589 29.128 50.1109 26.976 50.1109 24.384C50.1109 21.776 50.9629 19.632 52.6669 17.952C54.3789 16.264 56.5109 15.42 59.0629 15.42C59.8789 15.42 60.6669 15.528 61.4269 15.744C62.1949 15.952 62.8949 16.248 63.5269 16.632C64.1589 17.008 64.6509 17.384 65.0029 17.76C65.3629 18.128 65.5429 18.312 65.5429 18.312L63.3589 20.508C63.3589 20.508 63.2229 20.364 62.9509 20.076C62.6789 19.78 62.3509 19.516 61.9669 19.284C61.5829 19.044 61.1469 18.856 60.6589 18.72C60.1789 18.584 59.6549 18.516 59.0869 18.516C57.4549 18.516 56.0909 19.056 54.9949 20.136C53.8989 21.216 53.3509 22.628 53.3509 24.372C53.3509 26.108 53.8949 27.528 54.9829 28.632C56.0709 29.736 57.4349 30.288 59.0749 30.288C59.6669 30.288 60.2229 30.208 60.7429 30.048C61.2709 29.88 61.7629 29.648 62.2189 29.352C62.6829 29.056 63.0389 28.764 63.2869 28.476C63.5429 28.18 63.6709 28.032 63.6709 28.032L65.9149 30.252C65.9149 30.252 65.7189 30.468 65.3269 30.9C64.9429 31.324 64.4149 31.736 63.7429 32.136C63.0709 32.536 62.3389 32.844 61.5469 33.06C60.7629 33.284 59.9349 33.396 59.0629 33.396ZM72.7872 33L66.5592 15.816H70.0032L73.8072 26.868L74.3592 28.62H74.4432L74.9952 26.892L78.8352 15.816H82.2192L75.7872 33H72.7872ZM89.5422 33V15.816H96.5382C97.9542 15.816 99.1462 16.248 100.114 17.112C101.082 17.968 101.566 19.044 101.566 20.34C101.566 21.228 101.346 21.992 100.906 22.632C100.466 23.272 99.8742 23.756 99.1302 24.084V24.156C100.034 24.428 100.766 24.92 101.326 25.632C101.886 26.336 102.166 27.168 102.166 28.128C102.166 29.504 101.666 30.66 100.666 31.596C99.6742 32.532 98.4302 33 96.9342 33H89.5422ZM92.7582 30.336H96.4062C97.1102 30.336 97.7062 30.1 98.1942 29.628C98.6822 29.148 98.9262 28.56 98.9262 27.864C98.9262 27.168 98.6702 26.592 98.1582 26.136C97.6542 25.68 97.0422 25.452 96.3222 25.452H91.8102V23.076H96.0222C96.7182 23.076 97.2942 22.856 97.7502 22.416C98.2142 21.968 98.4462 21.428 98.4462 20.796C98.4462 20.164 98.2222 19.632 97.7742 19.2C97.3262 18.76 96.7622 18.54 96.0822 18.54H92.7582V30.336ZM108.881 33.396C107.441 33.396 106.317 32.984 105.509 32.16C104.709 31.328 104.309 30.156 104.309 28.644V20.676H107.489V28.128C107.489 29.024 107.697 29.712 108.113 30.192C108.529 30.672 109.121 30.912 109.889 30.912C110.705 30.912 111.385 30.604 111.929 29.988C112.473 29.372 112.745 28.62 112.745 27.732V20.676H115.925V33H112.925V29.868L114.377 31.32H112.853C112.501 31.928 111.969 32.428 111.257 32.82C110.553 33.204 109.761 33.396 108.881 33.396ZM118.987 33V20.676H122.167V33H118.987ZM120.583 18.588C120.063 18.588 119.619 18.408 119.251 18.048C118.891 17.688 118.711 17.248 118.711 16.728C118.711 16.2 118.891 15.764 119.251 15.42C119.619 15.068 120.063 14.892 120.583 14.892C121.111 14.892 121.551 15.068 121.903 15.42C122.255 15.764 122.431 16.2 122.431 16.728C122.431 17.248 122.255 17.688 121.903 18.048C121.551 18.408 121.111 18.588 120.583 18.588ZM125.206 33V15.816H128.386V33H125.206ZM136.363 33.396C134.699 33.396 133.319 32.796 132.223 31.596C131.135 30.388 130.591 28.812 130.591 26.868C130.591 24.932 131.147 23.352 132.259 22.128C133.371 20.904 134.779 20.292 136.483 20.292C137.307 20.292 138.067 20.472 138.763 20.832C139.459 21.184 139.983 21.648 140.335 22.224H140.395V15.816H143.551V33H140.515V30.912L140.827 31.368L140.443 31.38C140.067 31.996 139.511 32.488 138.775 32.856C138.047 33.216 137.243 33.396 136.363 33.396ZM137.083 30.708C138.051 30.708 138.859 30.344 139.507 29.616C140.163 28.888 140.491 27.964 140.491 26.844C140.491 25.708 140.159 24.784 139.495 24.072C138.839 23.36 138.035 23.004 137.083 23.004C136.131 23.004 135.323 23.36 134.659 24.072C134.003 24.784 133.675 25.708 133.675 26.844C133.675 27.972 134.003 28.9 134.659 29.628C135.315 30.348 136.123 30.708 137.083 30.708ZM152.139 33.396C150.235 33.396 148.695 32.78 147.519 31.548C146.343 30.316 145.755 28.744 145.755 26.832C145.755 24.944 146.343 23.38 147.519 22.14C148.695 20.9 150.203 20.28 152.043 20.28C153.835 20.28 155.295 20.832 156.423 21.936C157.559 23.04 158.127 24.444 158.127 26.148V27.456H147.351V25.644H155.115C155.067 24.82 154.767 24.148 154.215 23.628C153.671 23.1 152.947 22.836 152.043 22.836C151.067 22.836 150.279 23.188 149.679 23.892C149.087 24.588 148.791 25.544 148.791 26.76C148.791 28.032 149.131 29.044 149.811 29.796C150.499 30.54 151.379 30.912 152.451 30.912C152.947 30.912 153.379 30.844 153.747 30.708C154.115 30.572 154.447 30.388 154.743 30.156C155.047 29.924 155.391 29.548 155.775 29.028L157.815 30.42C157.295 31.22 156.767 31.816 156.231 32.208C155.703 32.6 155.119 32.896 154.479 33.096C153.839 33.296 153.059 33.396 152.139 33.396ZM160.339 33V20.676H163.375V22.992L163.015 22.596H163.447C163.687 21.924 164.131 21.372 164.779 20.94C165.427 20.5 166.115 20.28 166.843 20.28C167.059 20.28 167.279 20.3 167.503 20.34C167.735 20.372 167.943 20.42 168.127 20.484C168.311 20.54 168.403 20.568 168.403 20.568V23.604C168.403 23.604 168.279 23.564 168.031 23.484C167.791 23.396 167.527 23.324 167.239 23.268C166.959 23.212 166.703 23.184 166.471 23.184C165.623 23.184 164.919 23.496 164.359 24.12C163.799 24.744 163.519 25.54 163.519 26.508V33H160.339Z" fill="white"/>
</svg>
