<svg width="20" height="20" viewBox="0 0 20 20" fill="none" xmlns="http://www.w3.org/2000/svg">
<path fill-rule="evenodd" clip-rule="evenodd" d="M5.90367 9.23706L7.12607 5.56984H8.70721L9.92962 9.23706L13.5968 10.4595V12.0406L9.92961 13.263L8.70721 16.9302H7.12607L5.90367 13.263L2.23645 12.0406V10.4595L5.90367 9.23706ZM7.91664 8.4686L7.35304 10.1594L6.826 10.6864L5.1352 11.25L6.826 11.8136L7.35304 12.3407L7.91664 14.0315L8.48024 12.3407L9.00728 11.8136L10.6981 11.25L9.00728 10.6864L8.48024 10.1594L7.91664 8.4686Z" fill="black"/>
<path fill-rule="evenodd" clip-rule="evenodd" d="M13.4589 4.29225L14.109 2.34192H15.0576L15.7078 4.29225L17.6581 4.94236V5.89104L15.7078 6.54115L15.0576 8.49148H14.109L13.4589 6.54115L11.5085 5.89104V4.94236L13.4589 4.29225Z" fill="black"/>
</svg>
