<svg width="360" height="360" viewBox="0 0 360 360" fill="none" xmlns="http://www.w3.org/2000/svg">
<g clip-path="url(#clip0_8252_94)">
<rect width="360" height="360" fill="#F0F0F0"/>
<path d="M340 180C340 158.988 335.861 138.183 327.821 118.771C319.78 99.3586 307.994 81.7203 293.137 66.8629C278.28 52.0055 260.641 40.22 241.229 32.1793C221.817 24.1385 201.011 20 180 20C158.988 20 138.183 24.1385 118.771 32.1793C99.3586 40.22 81.7203 52.0055 66.8629 66.8629C52.0055 81.7203 40.22 99.3586 32.1793 118.771C24.1385 138.183 20 158.989 20 180H61.6782C61.6782 164.462 64.7387 149.076 70.6849 134.72C76.6311 120.365 85.3467 107.321 96.3339 96.3339C107.321 85.3467 120.365 76.6311 134.72 70.6849C149.076 64.7387 164.462 61.6782 180 61.6782C195.538 61.6782 210.924 64.7387 225.28 70.6849C239.635 76.6311 252.679 85.3467 263.666 96.3339C274.653 107.321 283.369 120.365 289.315 134.72C295.261 149.076 298.322 164.462 298.322 180H340Z" fill="white"/>
<path d="M340 180C340 221.456 323.91 261.293 295.119 291.12C266.328 320.947 227.084 338.435 185.654 339.9C144.224 341.365 103.843 326.693 73.0175 298.974C42.1917 271.255 23.3278 232.653 20.3996 191.301C17.4715 149.949 30.7077 109.075 57.32 77.2887C83.9322 45.5026 121.843 25.2863 163.066 20.8987C204.288 16.511 245.605 28.2945 278.312 53.7669C311.018 79.2393 332.562 116.412 338.404 157.454L297.141 163.327C292.821 132.976 276.89 105.486 252.703 86.6492C228.516 67.8121 197.962 59.0981 167.477 62.3428C136.992 65.5875 108.957 80.5377 89.2767 104.044C69.5967 127.55 59.8083 157.777 61.9737 188.357C64.1391 218.938 78.0892 247.484 100.885 267.982C123.681 288.481 153.544 299.331 184.181 298.248C214.819 297.165 243.84 284.232 265.132 262.175C286.423 240.117 298.322 210.657 298.322 180H340Z" fill="#5C5C5C"/>
<path d="M111.214 187L115.066 181.636L115.948 181.366C115.804 181.642 115.636 181.888 115.444 182.104C115.264 182.308 115.03 182.464 114.742 182.572C114.454 182.68 114.076 182.734 113.608 182.734C112.864 182.734 112.18 182.56 111.556 182.212C110.944 181.852 110.452 181.36 110.08 180.736C109.708 180.112 109.522 179.398 109.522 178.594C109.522 177.778 109.726 177.034 110.134 176.362C110.542 175.678 111.094 175.138 111.79 174.742C112.486 174.346 113.26 174.148 114.112 174.148C114.976 174.148 115.75 174.346 116.434 174.742C117.13 175.138 117.676 175.666 118.072 176.326C118.48 176.986 118.684 177.724 118.684 178.54C118.684 179.656 118.294 180.784 117.514 181.924L114.004 187H111.214ZM114.112 180.862C114.532 180.862 114.904 180.766 115.228 180.574C115.552 180.382 115.804 180.118 115.984 179.782C116.176 179.434 116.272 179.05 116.272 178.63C116.272 178.186 116.176 177.796 115.984 177.46C115.804 177.124 115.552 176.86 115.228 176.668C114.904 176.464 114.532 176.362 114.112 176.362C113.692 176.362 113.314 176.464 112.978 176.668C112.654 176.86 112.396 177.124 112.204 177.46C112.024 177.796 111.934 178.186 111.934 178.63C111.934 179.062 112.024 179.446 112.204 179.782C112.396 180.118 112.66 180.382 112.996 180.574C113.332 180.766 113.704 180.862 114.112 180.862ZM121.444 187L125.296 181.636L126.178 181.366C126.034 181.642 125.866 181.888 125.674 182.104C125.494 182.308 125.26 182.464 124.972 182.572C124.684 182.68 124.306 182.734 123.838 182.734C123.094 182.734 122.41 182.56 121.786 182.212C121.174 181.852 120.682 181.36 120.31 180.736C119.938 180.112 119.752 179.398 119.752 178.594C119.752 177.778 119.956 177.034 120.364 176.362C120.772 175.678 121.324 175.138 122.02 174.742C122.716 174.346 123.49 174.148 124.342 174.148C125.206 174.148 125.98 174.346 126.664 174.742C127.36 175.138 127.906 175.666 128.302 176.326C128.71 176.986 128.914 177.724 128.914 178.54C128.914 179.656 128.524 180.784 127.744 181.924L124.234 187H121.444ZM124.342 180.862C124.762 180.862 125.134 180.766 125.458 180.574C125.782 180.382 126.034 180.118 126.214 179.782C126.406 179.434 126.502 179.05 126.502 178.63C126.502 178.186 126.406 177.796 126.214 177.46C126.034 177.124 125.782 176.86 125.458 176.668C125.134 176.464 124.762 176.362 124.342 176.362C123.922 176.362 123.544 176.464 123.208 176.668C122.884 176.86 122.626 177.124 122.434 177.46C122.254 177.796 122.164 178.186 122.164 178.63C122.164 179.062 122.254 179.446 122.434 179.782C122.626 180.118 122.89 180.382 123.226 180.574C123.562 180.766 123.934 180.862 124.342 180.862ZM130.469 187L138.317 174.346H140.549L132.701 187H130.469ZM138.263 187.18C137.783 187.18 137.345 187.066 136.949 186.838C136.553 186.598 136.235 186.286 135.995 185.902C135.767 185.506 135.653 185.062 135.653 184.57C135.653 184.078 135.767 183.64 135.995 183.256C136.235 182.872 136.547 182.566 136.931 182.338C137.327 182.098 137.771 181.978 138.263 181.978C138.755 181.978 139.199 182.098 139.595 182.338C139.991 182.566 140.303 182.872 140.531 183.256C140.771 183.64 140.891 184.078 140.891 184.57C140.891 185.062 140.771 185.506 140.531 185.902C140.303 186.286 139.991 186.598 139.595 186.838C139.211 187.066 138.767 187.18 138.263 187.18ZM138.263 185.47C138.527 185.47 138.743 185.386 138.911 185.218C139.079 185.05 139.163 184.834 139.163 184.57C139.163 184.318 139.073 184.108 138.893 183.94C138.725 183.772 138.515 183.688 138.263 183.688C138.011 183.688 137.801 183.772 137.633 183.94C137.477 184.108 137.399 184.318 137.399 184.57C137.399 184.834 137.477 185.05 137.633 185.218C137.801 185.386 138.011 185.47 138.263 185.47ZM132.719 179.368C132.251 179.368 131.813 179.254 131.405 179.026C131.009 178.786 130.697 178.468 130.469 178.072C130.241 177.676 130.127 177.238 130.127 176.758C130.127 176.266 130.241 175.828 130.469 175.444C130.697 175.06 131.009 174.754 131.405 174.526C131.801 174.286 132.239 174.166 132.719 174.166C133.211 174.166 133.655 174.286 134.051 174.526C134.459 174.754 134.777 175.06 135.005 175.444C135.233 175.828 135.347 176.266 135.347 176.758C135.347 177.238 135.227 177.676 134.987 178.072C134.759 178.468 134.447 178.786 134.051 179.026C133.667 179.254 133.223 179.368 132.719 179.368ZM132.719 177.658C132.995 177.658 133.211 177.574 133.367 177.406C133.523 177.238 133.601 177.022 133.601 176.758C133.601 176.494 133.517 176.278 133.349 176.11C133.193 175.942 132.983 175.858 132.719 175.858C132.467 175.858 132.263 175.942 132.107 176.11C131.951 176.278 131.873 176.494 131.873 176.758C131.873 177.022 131.951 177.238 132.107 177.406C132.263 177.574 132.467 177.658 132.719 177.658ZM144.903 187L149.997 174.346H151.995L157.071 187H154.461L150.537 176.614H151.437L147.459 187H144.903ZM147.603 184.642V182.59H154.407V184.642H147.603ZM160.186 187V174.616H162.652V187H160.186ZM156.154 176.524V174.346H166.684V176.524H156.154ZM171.361 187.18C170.341 187.18 169.465 187.006 168.733 186.658C168.013 186.31 167.359 185.788 166.771 185.092L168.391 183.472C168.763 183.964 169.195 184.348 169.687 184.624C170.179 184.888 170.779 185.02 171.487 185.02C172.123 185.02 172.627 184.894 172.999 184.642C173.383 184.39 173.575 184.042 173.575 183.598C173.575 183.214 173.467 182.902 173.251 182.662C173.035 182.422 172.747 182.218 172.387 182.05C172.039 181.882 171.649 181.732 171.217 181.6C170.797 181.456 170.371 181.294 169.939 181.114C169.519 180.934 169.129 180.712 168.769 180.448C168.421 180.172 168.139 179.824 167.923 179.404C167.707 178.972 167.599 178.432 167.599 177.784C167.599 177.016 167.785 176.362 168.157 175.822C168.529 175.282 169.039 174.868 169.687 174.58C170.335 174.292 171.067 174.148 171.883 174.148C172.747 174.148 173.527 174.31 174.223 174.634C174.919 174.958 175.489 175.378 175.933 175.894L174.313 177.514C173.941 177.106 173.557 176.806 173.161 176.614C172.777 176.422 172.339 176.326 171.847 176.326C171.283 176.326 170.839 176.434 170.515 176.65C170.191 176.866 170.029 177.178 170.029 177.586C170.029 177.934 170.137 178.216 170.353 178.432C170.569 178.648 170.851 178.834 171.199 178.99C171.559 179.146 171.949 179.296 172.369 179.44C172.801 179.584 173.227 179.746 173.647 179.926C174.079 180.106 174.469 180.34 174.817 180.628C175.177 180.916 175.465 181.288 175.681 181.744C175.897 182.188 176.005 182.74 176.005 183.4C176.005 184.576 175.591 185.5 174.763 186.172C173.935 186.844 172.801 187.18 171.361 187.18ZM185.124 187.18C184.104 187.18 183.228 187.006 182.496 186.658C181.776 186.31 181.122 185.788 180.534 185.092L182.154 183.472C182.526 183.964 182.958 184.348 183.45 184.624C183.942 184.888 184.542 185.02 185.25 185.02C185.886 185.02 186.39 184.894 186.762 184.642C187.146 184.39 187.338 184.042 187.338 183.598C187.338 183.214 187.23 182.902 187.014 182.662C186.798 182.422 186.51 182.218 186.15 182.05C185.802 181.882 185.412 181.732 184.98 181.6C184.56 181.456 184.134 181.294 183.702 181.114C183.282 180.934 182.892 180.712 182.532 180.448C182.184 180.172 181.902 179.824 181.686 179.404C181.47 178.972 181.362 178.432 181.362 177.784C181.362 177.016 181.548 176.362 181.92 175.822C182.292 175.282 182.802 174.868 183.45 174.58C184.098 174.292 184.83 174.148 185.646 174.148C186.51 174.148 187.29 174.31 187.986 174.634C188.682 174.958 189.252 175.378 189.696 175.894L188.076 177.514C187.704 177.106 187.32 176.806 186.924 176.614C186.54 176.422 186.102 176.326 185.61 176.326C185.046 176.326 184.602 176.434 184.278 176.65C183.954 176.866 183.792 177.178 183.792 177.586C183.792 177.934 183.9 178.216 184.116 178.432C184.332 178.648 184.614 178.834 184.962 178.99C185.322 179.146 185.712 179.296 186.132 179.44C186.564 179.584 186.99 179.746 187.41 179.926C187.842 180.106 188.232 180.34 188.58 180.628C188.94 180.916 189.228 181.288 189.444 181.744C189.66 182.188 189.768 182.74 189.768 183.4C189.768 184.576 189.354 185.5 188.526 186.172C187.698 186.844 186.564 187.18 185.124 187.18ZM197.674 187.18C196.75 187.18 195.892 187.018 195.1 186.694C194.308 186.358 193.612 185.896 193.012 185.308C192.424 184.708 191.968 184.012 191.644 183.22C191.332 182.428 191.176 181.576 191.176 180.664C191.176 179.752 191.332 178.9 191.644 178.108C191.968 177.316 192.424 176.626 193.012 176.038C193.612 175.45 194.302 174.988 195.082 174.652C195.874 174.316 196.738 174.148 197.674 174.148C198.682 174.148 199.57 174.316 200.338 174.652C201.106 174.976 201.784 175.426 202.372 176.002L200.716 177.658C200.368 177.274 199.942 176.974 199.438 176.758C198.934 176.542 198.346 176.434 197.674 176.434C197.086 176.434 196.546 176.536 196.054 176.74C195.574 176.932 195.154 177.22 194.794 177.604C194.434 177.976 194.158 178.426 193.966 178.954C193.774 179.47 193.678 180.04 193.678 180.664C193.678 181.3 193.774 181.876 193.966 182.392C194.158 182.908 194.434 183.358 194.794 183.742C195.154 184.114 195.574 184.402 196.054 184.606C196.546 184.81 197.086 184.912 197.674 184.912C198.382 184.912 198.988 184.804 199.492 184.588C200.008 184.372 200.44 184.066 200.788 183.67L202.444 185.326C201.856 185.914 201.172 186.37 200.392 186.694C199.612 187.018 198.706 187.18 197.674 187.18ZM205.946 181.708V179.8H208.88C209.48 179.8 209.942 179.65 210.266 179.35C210.602 179.038 210.77 178.612 210.77 178.072C210.77 177.58 210.602 177.172 210.266 176.848C209.942 176.512 209.48 176.344 208.88 176.344H205.946V174.346H209.096C209.912 174.346 210.626 174.508 211.238 174.832C211.862 175.144 212.342 175.576 212.678 176.128C213.026 176.68 213.2 177.316 213.2 178.036C213.2 178.78 213.026 179.428 212.678 179.98C212.342 180.52 211.862 180.946 211.238 181.258C210.614 181.558 209.888 181.708 209.06 181.708H205.946ZM204.146 187V174.346H206.594V187H204.146ZM211.058 187L206.882 181.528L209.132 180.826L214.028 187H211.058ZM221.23 187.198C220.306 187.198 219.442 187.03 218.638 186.694C217.846 186.358 217.15 185.896 216.55 185.308C215.962 184.708 215.5 184.012 215.164 183.22C214.828 182.416 214.66 181.558 214.66 180.646C214.66 179.734 214.822 178.888 215.146 178.108C215.482 177.316 215.944 176.626 216.532 176.038C217.132 175.438 217.828 174.976 218.62 174.652C219.412 174.316 220.27 174.148 221.194 174.148C222.13 174.148 222.994 174.316 223.786 174.652C224.578 174.976 225.268 175.438 225.856 176.038C226.456 176.626 226.924 177.316 227.26 178.108C227.596 178.9 227.764 179.752 227.764 180.664C227.764 181.576 227.596 182.428 227.26 183.22C226.924 184.012 226.456 184.708 225.856 185.308C225.268 185.896 224.578 186.358 223.786 186.694C223.006 187.03 222.154 187.198 221.23 187.198ZM221.194 184.912C222.01 184.912 222.718 184.732 223.318 184.372C223.918 184.012 224.386 183.514 224.722 182.878C225.07 182.242 225.244 181.498 225.244 180.646C225.244 180.022 225.148 179.452 224.956 178.936C224.764 178.42 224.488 177.976 224.128 177.604C223.768 177.22 223.342 176.926 222.85 176.722C222.358 176.518 221.806 176.416 221.194 176.416C220.402 176.416 219.7 176.596 219.088 176.956C218.488 177.304 218.014 177.796 217.666 178.432C217.33 179.068 217.162 179.806 217.162 180.646C217.162 181.282 217.258 181.864 217.45 182.392C217.654 182.92 217.93 183.37 218.278 183.742C218.638 184.114 219.064 184.402 219.556 184.606C220.06 184.81 220.606 184.912 221.194 184.912ZM231.504 181.708V179.8H234.438C235.038 179.8 235.5 179.65 235.824 179.35C236.16 179.038 236.328 178.612 236.328 178.072C236.328 177.58 236.16 177.172 235.824 176.848C235.5 176.512 235.038 176.344 234.438 176.344H231.504V174.346H234.654C235.47 174.346 236.184 174.508 236.796 174.832C237.42 175.144 237.9 175.576 238.236 176.128C238.584 176.68 238.758 177.316 238.758 178.036C238.758 178.78 238.584 179.428 238.236 179.98C237.9 180.52 237.42 180.946 236.796 181.258C236.172 181.558 235.446 181.708 234.618 181.708H231.504ZM229.704 187V174.346H232.152V187H229.704ZM236.616 187L232.44 181.528L234.69 180.826L239.586 187H236.616ZM240.972 187V174.346H243.42V187H240.972ZM242.772 187V184.84H249.774V187H242.772ZM242.772 181.582V179.494H249.144V181.582H242.772ZM242.772 176.506V174.346H249.684V176.506H242.772Z" fill="black"/>
</g>
<defs>
<clipPath id="clip0_8252_94">
<rect width="360" height="360" rx="10" fill="white"/>
</clipPath>
</defs>
</svg>
