<svg width="36" height="36" viewBox="0 0 36 36" fill="none" xmlns="http://www.w3.org/2000/svg">
<path d="M25.935 6.21007L25.83 11.8951C25.815 12.6751 26.31 13.7101 26.94 14.1751L30.66 16.9951C33.045 18.7951 32.655 21.0001 29.805 21.9001L24.96 23.4151C24.15 23.6701 23.295 24.5551 23.085 25.3801L21.93 29.7901C21.015 33.2701 18.735 33.6151 16.845 30.5551L14.205 26.2801C13.725 25.5001 12.585 24.9151 11.685 24.9601L6.67504 25.2151C3.09004 25.3951 2.07004 23.3251 4.41004 20.5951L7.38004 17.1451C7.93504 16.5001 8.19004 15.3001 7.93504 14.4901L6.40504 9.63007C5.52004 6.78007 7.11004 5.20507 9.94504 6.13507L14.37 7.59007C15.12 7.83007 16.245 7.66507 16.875 7.20007L21.495 3.87007C24 2.08507 25.995 3.13507 25.935 6.21007Z" fill="white"/>
<path d="M32.16 30.705L27.615 26.16C27.18 25.725 26.46 25.725 26.025 26.16C25.59 26.595 25.59 27.315 26.025 27.75L30.57 32.295C30.795 32.52 31.08 32.625 31.365 32.625C31.65 32.625 31.935 32.52 32.16 32.295C32.595 31.86 32.595 31.14 32.16 30.705Z" fill="white"/>
</svg>
