<svg width="36" height="36" viewBox="0 0 36 36" fill="none" xmlns="http://www.w3.org/2000/svg">
<path d="M30.54 19.0951C29.985 19.0951 29.52 18.6751 29.46 18.1201C29.1 14.8201 27.33 11.8501 24.6 9.96011C24.105 9.61511 23.985 8.94011 24.33 8.44511C24.675 7.95011 25.35 7.83011 25.845 8.17511C29.1 10.4401 31.2 13.9801 31.635 17.8951C31.695 18.4951 31.26 19.0351 30.66 19.0951C30.615 19.0951 30.585 19.0951 30.54 19.0951Z" fill="white"/>
<path d="M5.60994 19.1701C5.57994 19.1701 5.53494 19.1701 5.50494 19.1701C4.90494 19.1101 4.46994 18.5701 4.52994 17.9701C4.93494 14.0551 7.00494 10.5151 10.2299 8.23506C10.7099 7.89006 11.3999 8.01006 11.7449 8.49006C12.0899 8.98506 11.9699 9.66006 11.4899 10.0051C8.78994 11.9251 7.03494 14.8951 6.70494 18.1801C6.64494 18.7501 6.16494 19.1701 5.60994 19.1701Z" fill="white"/>
<path d="M23.985 31.65C22.14 32.535 20.16 32.985 18.09 32.985C15.93 32.985 13.875 32.505 11.955 31.53C11.415 31.275 11.205 30.615 11.475 30.075C11.73 29.535 12.39 29.325 12.93 29.58C13.875 30.06 14.88 30.39 15.9 30.585C17.28 30.855 18.69 30.87 20.07 30.63C21.09 30.45 22.095 30.135 23.025 29.685C23.58 29.43 24.24 29.64 24.48 30.195C24.75 30.735 24.54 31.395 23.985 31.65Z" fill="white"/>
<path d="M18.075 3.01489C15.75 3.01489 13.845 4.90489 13.845 7.24489C13.845 9.58489 15.735 11.4749 18.075 11.4749C20.415 11.4749 22.305 9.58489 22.305 7.24489C22.305 4.90489 20.415 3.01489 18.075 3.01489Z" fill="white"/>
<path d="M7.57497 20.8049C5.24997 20.8049 3.34497 22.6949 3.34497 25.0349C3.34497 27.3749 5.23497 29.2649 7.57497 29.2649C9.91497 29.2649 11.805 27.3749 11.805 25.0349C11.805 22.6949 9.89997 20.8049 7.57497 20.8049Z" fill="white"/>
<path d="M28.4249 20.8049C26.0999 20.8049 24.1949 22.6949 24.1949 25.0349C24.1949 27.3749 26.0849 29.2649 28.4249 29.2649C30.7649 29.2649 32.6549 27.3749 32.6549 25.0349C32.6549 22.6949 30.7649 20.8049 28.4249 20.8049Z" fill="white"/>
</svg>
